<?xml version="1.0" encoding="UTF-8"?>
<!DOCTYPE svg PUBLIC "-//W3C//DTD SVG 1.1//EN" "http://www.w3.org/Graphics/SVG/1.1/DTD/svg11.dtd">
<!-- Creator: CorelDRAW 2021 (64-Bit) -->
<svg xmlns="http://www.w3.org/2000/svg" xml:space="preserve" width="81.28mm" height="81.28mm" version="1.1" style="shape-rendering:geometricPrecision; text-rendering:geometricPrecision; image-rendering:optimizeQuality; fill-rule:evenodd; clip-rule:evenodd"
viewBox="0 0 8128 8128"
 xmlns:xlink="http://www.w3.org/1999/xlink"
 xmlns:xodm="http://www.corel.com/coreldraw/odm/2003">
 <defs>
  <style type="text/css">
   <![CDATA[
    .str0 {stroke:#373435;stroke-width:100;stroke-linecap:round;stroke-linejoin:round;stroke-miterlimit:22.9256}
    .str1 {stroke:#373435;stroke-width:282.22;stroke-linecap:round;stroke-linejoin:round;stroke-miterlimit:22.9256}
    .fil1 {fill:none}
    .fil2 {fill:#FEFEFE}
    .fil0 {fill:#373435}
   ]]>
  </style>
 </defs>
 <g id="Layer_x0020_1">
  <metadata id="CorelCorpID_0Corel-Layer"/>
  <path class="fil0 str0" d="M7313.29 3907.09l143.56 38.87c-29.98,126.06 -83.87,221.89 -161.69,288.02 -77.83,66.14 -173.03,99.34 -285.61,99.34 -116.36,0 -211.06,-25.37 -284.1,-76.39 -73.04,-50.75 -128.45,-124.44 -166.48,-220.81 -38.03,-96.64 -57.17,-200.03 -57.17,-310.7 0,-120.66 21.41,-225.94 64.47,-315.83 43.08,-89.89 104.28,-158.18 183.61,-204.88 79.34,-46.7 166.73,-69.91 261.93,-69.91 108.3,0 199.22,29.42 272.76,88.54 73.8,59.11 125.18,141.98 154.15,248.88l-140.55 35.63c-24.92,-84.22 -61.45,-145.77 -109.05,-184.1 -47.6,-38.6 -107.54,-57.76 -179.82,-57.76 -82.87,0 -152.38,21.32 -208.04,63.97 -55.66,42.65 -94.95,100.15 -117.37,171.95 -22.66,72.08 -34,146.31 -34,222.7 0,98.53 13.35,184.64 40.05,258.06 26.69,73.69 68.25,128.49 124.67,164.93 56.41,36.45 117.36,54.53 183.1,54.53 80.09,0 147.59,-24.83 203,-74.23 55.41,-49.67 92.93,-123.09 112.58,-220.81z"/>
  <polygon class="fil0 str0" points="5528.62,4313.88 5528.62,3154.23 5672.18,3154.23 5672.18,3729.2 6209.64,3154.23 6403.57,3154.23 5949.73,3624.46 6423.22,4313.88 6234.32,4313.88 5849.23,3728.66 5672.18,3912.21 5672.18,4313.88 "/>
  <polygon class="fil0 str0" points="4408.1,4313.88 4823.16,3154.23 4980.57,3154.23 5421.07,4313.88 5258.12,4313.88 5132.95,3962.42 4677.33,3962.42 4559.97,4313.88 "/>
  <g id="_2835861190224">
   <path class="fil0 str0" d="M1578.77 3354.33l138.19 523.97c9.58,32.71 11.91,94.52 92.03,111.55l1124.44 1.84c75.83,-5.9 95.48,-48.93 106.8,-92.5l141.56 -544.86c26.31,-136.36 180.23,-146.9 189.1,-20.57l-202.78 739.27c-43.33,108.76 -30.99,161.93 -140.08,166.33l-1365.16 6.73c-93.82,0.3 -96.81,-102.42 -110,-143.35l-168.41 -750.58c-21.57,-96.16 154.43,-149.04 194.31,2.17z"/>
   <polygon class="fil0 str0" points="1984.57,4438.27 2116.42,4438.27 2116.42,4839.04 1984.57,4839.04 "/>
   <polygon class="fil0 str0" points="2659.57,4439.36 2791.43,4439.36 2791.43,4837.95 2659.57,4837.95 "/>
   <polygon class="fil0 str0" points="2066.1,3722.98 2701.31,3716.95 2824.16,3857.5 1926.09,3857.5 "/>
   <path class="fil0 str0" d="M1549.93 3144.96l-5.77 -322.4c288.61,124.22 308.81,358.7 400.74,763.54l-136.46 121.25 -111.28 -448.09c-0.45,-16.82 -53.25,-123.43 -147.23,-114.3z"/>
   <path class="fil0 str0" d="M3215.52 3139.15l14.27 -350.04c-348.94,171.25 -353.17,492.92 -419.52,800.39l127.03 148.57 113.66 -488c32.92,-71.68 103.33,-121.09 164.56,-110.92z"/>
   <path class="fil0 str0" d="M1741.81 2763.64l1282.96 -10.18c-166.38,118.25 -264.52,319.73 -341.08,809.2l-610.97 5.09c-116.3,-581.38 -156.38,-586.97 -330.91,-804.11z"/>
  </g>
  <polygon class="fil1 str1" points="1247.98,2185.14 3519.44,2185.14 3891.41,2620.81 3891.41,4819.13 3519.44,5254.8 1247.98,5254.8 876.01,4819.13 876.01,2620.81 "/>
  <path class="fil2 str0" d="M4719.39 3837.71l118.63 -340.39c24.94,-73.42 44.83,-147.65 59.69,-223.24 17.88,63.71 43.57,144.42 77.57,242.14l112.84 321.49 -368.73 0z"/>
 </g>
</svg>
